<!-- Generator: Adobe Illustrator 22.1.0, SVG Export Plug-In  -->
<svg version="1.1"
     xmlns="http://www.w3.org/2000/svg" xmlns:xlink="http://www.w3.org/1999/xlink" xmlns:a="http://ns.adobe.com/AdobeSVGViewerExtensions/3.0/"
     x="0px" y="0px" width="2653.6px" height="403.1px" viewBox="0 0 2653.6 403.1" style="enable-background:new 0 0 2653.6 403.1;"
     xml:space="preserve">
<style type="text/css">
    .st0{fill:#FFFFFF;}
</style>
<defs>
</defs>
<g>
    <path class="st0" d="M1693.1,206c27.1,0,40.7-12.2,40.7-36.6s-13.6-36.6-40.7-36.6h-81.4v24.4h77.3c13.6,0,20.3,4.1,20.3,12.2
        s-6.8,12.2-20.3,12.2h-77.3V206h36.3l57.3,48.8h37.5l-57.3-48.8H1693.1z"/>
    <polygon class="st0" points="1802,132.8 1749,254.9 1775.6,254.9 1815.3,163.5 1855,254.9 1881.5,254.9 1828.5,132.8   "/>
    <polygon class="st0" points="1994.3,217.8 1921.5,132.8 1896.6,132.8 1896.6,254.9 1921,254.9 1921,169.8 1993.8,254.9
        2018.7,254.9 2018.7,132.8 1994.3,132.8  "/>
    <polygon class="st0" points="2128.7,132.8 2066.8,188.5 2066.8,132.3 2041.8,132.3 2041.8,254.3 2066.8,254.3 2066.8,199.1
        2128.7,254.9 2165.2,254.9 2097.4,193.8 2165.2,132.8     "/>
    <rect x="2189.6" y="132.8" class="st0" width="24.4" height="122.1"/>
    <polygon class="st0" points="2336.1,217.8 2263.4,132.8 2238.4,132.8 2238.4,254.9 2262.9,254.9 2262.9,169.8 2335.7,254.9
        2360.5,254.9 2360.5,132.8 2336.1,132.8  "/>
    <path class="st0" d="M2385,173.5v40.7c0,27.1,13.6,40.7,40.7,40.7h81.4v-65.1h-24.4v40.7h-53.6c-13.1,0-19.7-6.5-19.7-19.6v-34.1
        c0-13,6.5-19.5,19.6-19.5h78.1v-24.4h-81.4C2398.5,132.8,2385,146.4,2385,173.5z"/>
    <path class="st0" d="M2576.2,157.2h77.3v-24.4h-81.4c-27.1,0-40.7,12.2-40.7,36.6s13.6,36.6,40.7,36.6h36.6
        c13.6,0,20.3,4.1,20.3,12.2s-6.8,12.2-20.3,12.2h-77.3v24.4h81.4c27.1,0,40.7-12.2,40.7-36.6s-13.6-36.6-40.7-36.6h-36.6
        c-13.6,0-20.3-4.1-20.3-12.2S2562.7,157.2,2576.2,157.2z"/>
    <path class="st0" d="M724.8,183.7c15.2-4.5,28.1-10.7,38.7-18.7c10.6-8,18.6-17.6,24.1-29c5.5-11.3,8.2-24,8.2-38
        c0-14-2.7-26.7-8.2-38.2c-5.5-11.5-13.5-21.3-23.9-29.6c-10.5-8.2-23.3-14.6-38.5-19.3c-15.2-4.6-32.5-6.9-52-6.9H516.1l-51.3,65.1
        h215.5c12,0,21.3,2.6,27.9,7.7c6.6,5.1,9.9,12,9.9,20.8c0,8.7-3.3,15.7-9.9,21c-6.6,5.2-15.9,7.9-27.9,7.9H464.8v127.9h77.1v-64
        h130.9C692.3,190.4,709.6,188.2,724.8,183.7z"/>
    <path class="st0" d="M1521.2,31.1C1490.6,10.4,1444.9,0,1384,0c-61.1,0-106.9,10.4-137.3,31.1c-30.4,20.7-45.6,53.4-45.6,98
        c0,44.9,15.2,77.7,45.5,98.4c2.9,2,6,3.9,9.2,5.7c-0.2,0-0.4,0-0.6,0c-0.2,0-1.1,0.1-2.8,0.2c-1.7,0.1-3.8,0.3-6.3,0.4
        c-2.5,0.2-5.2,0.4-8.1,0.6c-2.9,0.3-5.5,0.5-8.1,0.7c-2.5,0.2-4.6,0.4-6.4,0.6c-1.7,0.2-2.7,0.3-2.9,0.4c-0.9,0.4-1.9,0.6-2.9,0.6
        c-0.7,0-1.3-0.1-1.8-0.2c-0.5-0.1-1-0.2-1.4-0.2c-0.7,0-1.4,0.2-2,0.7c-0.7,0.5-1.5,1.5-2.4,3c-0.2,0.3-0.7,1-1.5,2.4
        c-0.8,1.2-1.7,2.7-2.8,4.4c-0.3-0.1-0.6-0.2-0.9-0.3c-0.6-0.2-1.2-0.3-1.8-0.4c-0.6-0.1-1-0.1-1.3-0.1c-1.5,0-3.1,0-4.6,0.1
        c-1.5,0.1-3.1,0.2-4.6,0.4l-2,0.3c2.1,0,4.2,0.2,6.2,0.7c2,0.5,4.2,0.7,6.7,0.7c0.5,0,1,0,1.4,0c-1.1,1.8-2.4,3.8-3.7,5.9
        c-1.5,2.5-3.1,5-4.5,7.5c-1.5,2.5-2.9,5-4.2,7.4c-1.3,2.4-2.4,4.5-3.3,6.3c-1.4,3-3,6.2-4.9,9.8c-1.9,3.5-3.9,7.2-5.9,10.9
        c-2,3.8-4.1,7.5-6,11.1c-2,3.7-3.7,7.1-5.2,10.3s-2.8,6-3.8,8.4c-1,2.4-1.5,4.3-1.5,5.6c0.1,0.9,0.6,2.3,1.5,4.4
        c0.9,2.1,2.1,4.4,3.5,7c1.5,2.6,3.1,5.3,4.9,8.1c1.8,2.8,3.6,5.4,5.5,7.7c1.9,2.3,3.7,4.3,5.4,5.8c1.7,1.5,3.3,2.2,4.8,2.2
        c0.7,0,1.4-0.3,2-0.8c1.4-0.7,3.2-1.2,5.1-1.6c2-0.4,4-0.8,6-1.3c1.7-0.4,3.9-1,6.5-1.8c2.6-0.8,5.4-1.6,8.4-2.6
        c3-0.9,6.1-1.9,9.3-2.9c3.2-1,6.1-1.9,8.8-2.6s5-1.4,7-1.9c2-0.5,3.3-0.8,4-0.8c2,0,3.5-0.3,4.5-1c1-0.6,1.6-1,1.7-1.2
        c2-0.2,4.3-0.4,6.9-0.6c2.6-0.2,5.2-0.4,7.7-0.6c2.8-0.3,5.7-0.5,8.6-0.6c0-0.2-0.5-0.3-1.5-0.4c-1-0.1-2.3-0.1-3.8-0.1
        c-1.5,0-3.1,0-4.9,0c-1.7,0-3.4,0-4.9-0.1c-1.5,0-2.7-0.1-3.7-0.2c-1-0.1-1.5-0.2-1.5-0.4c0-0.4,0.2-0.7,0.6-0.7
        c0.4,0,0.8-0.1,1.2-0.1c0.1,0.1,0.3,0.1,0.7,0.1s0.8,0,1.3,0c0.8,0,1.5,0,2.3,0s1.2-0.1,1.2-0.3c-0.1-0.1-0.4-0.2-1.1-0.3
        c-0.6-0.1-1.3-0.2-2-0.3c-0.5-0.1-1.2-0.2-2-0.3c0.9,0,1.6-0.3,2-0.8c0.5-0.6,0.8-0.8,1.1-0.8c0.5,0,1.1,0.1,1.9,0.2
        c0.7,0.1,1.4,0.2,2.1,0.2c0.9,0,1.4-0.2,1.8-0.5c-0.1-0.1-0.1-0.2-0.1-0.3v-0.4v-0.5v-0.1c0.2,0,0.4,0.3,0.6,0.8
        c0.3,0.5,0.6,0.8,1,0.8c0.6,0,1.4,0.1,2.3,0.2c0.9,0.1,2,0.2,3.1,0.2c0.3-0.1,0.4-0.2,0.4-0.4c0-0.2-0.4-0.3-1.2-0.4
        c-0.8-0.1-1.6-0.2-2.5-0.3c-0.9-0.1-1.7-0.2-2.4-0.3c-0.7-0.1-1.1-0.4-1.1-0.7c0-0.1,0.7-0.1,2.1-0.2c1.4,0,2.9-0.1,4.6-0.1
        c1.7,0,3.2,0,4.6-0.1c1.4,0,2.1-0.2,2.1-0.4c0-0.7,0.2-1.1,0.6-1.3c0.4-0.2,1-0.3,1.7-0.3c0.4,0,0.9,0,1.4,0.1
        c0.5,0,0.9,0.1,1.3,0.1c0.7,0,1-0.2,1-0.5c0-0.3-0.4-0.6-1.2-0.7c-0.8-0.1-1.5-0.2-2-0.2c-0.3,0-1.3,0-3,0.1
        c-1.7,0.1-3.9,0.2-6.5,0.3c-2.6,0.1-5.3,0.2-8.3,0.3c-3,0.1-5.8,0.1-8.4,0.1c-2.6,0-4.9,0-6.7-0.1c-1.8-0.1-2.9-0.3-3.3-0.6h0.3
        c0.8,0,2.3-0.1,4.7-0.3c2.4-0.2,4.9-0.4,7.4-0.7c2.6-0.3,4.8-0.5,6.7-0.7c1.9-0.2,2.8-0.3,2.8-0.3c-1.8,0-4.4,0-7.8-0.1
        c-3.4-0.1-7.2-0.2-11.5-0.3c-4.3-0.1-8.7-0.2-13.4-0.3c-4.7-0.1-9.2-0.2-13.6-0.3c-4.3-0.1-8.3-0.2-11.8-0.3
        c-3.5-0.1-6.3-0.1-8.3-0.1c-1.2,0-2.4,0-3.6,0.1c-1.2,0-2.3,0.1-3.2,0.1h-0.9c0.1-0.1,0.1-0.3,0.1-0.8v-0.8
        c0.8-1.5,1.7-3.1,2.8-4.7c1.1-1.6,2.3-3.4,3.5-5.3c1.2-1.9,2.5-4,3.8-6.3c1.3-2.3,2.5-4.9,3.6-7.9c1.1,0,3.1-0.1,5.9-0.3
        c2.9-0.2,6.3-0.4,10.2-0.6c4-0.3,8.3-0.5,12.9-0.8c4.6-0.3,9.3-0.6,14.1-1c4.7-0.3,9.3-0.7,13.7-1c4.4-0.3,8.3-0.6,11.6-0.9
        c3.3-0.3,6-0.5,7.9-0.7c2-0.2,2.9-0.3,2.8-0.3c0.9-0.3,1.7-0.6,2.4-0.8c0.8-0.2,1.2-0.6,1.4-1.2c4.2-0.1,7.1-0.2,8.8-0.3
        c1.7-0.1,2.6-0.2,2.6-0.4c0-0.1-0.4-0.2-1.1-0.3c-0.7-0.1-1.6-0.2-2.8-0.3c-1.1-0.1-2.3-0.2-3.7-0.3c-1.4-0.1-2.7-0.2-4.1-0.3
        c-0.2-0.3-0.3-0.6-0.5-0.9c1.2-0.1,2.4-0.1,3.6-0.2c1.2,0,2.3-0.1,3.3-0.1c1,0,1.8-0.1,2.4-0.1c0.6,0,0.9-0.1,0.9-0.2
        c0-0.1-0.5-0.1-1.5-0.2c-1,0-2.7-0.1-5.1-0.2c0.6,0,1.4-0.1,2.4-0.3c1-0.2,1.9-0.3,2.8-0.4c0.9-0.1,1.7-0.3,2.4-0.4
        c0.7-0.1,1.1-0.2,1.2-0.2h2.7c1.5,0,2.3-0.1,2.3-0.4c0-0.3-0.5-0.4-1.5-0.5c-1-0.1-2.2-0.1-3.6-0.2c-1.4,0-2.8-0.1-4.2-0.1
        c-1.4,0-2.5,0-3.3,0c0.2-0.2,0.3-0.3,0.4-0.5c0.1-0.2,0.2-0.3,0.3-0.5c1.5,0.1,3.1,0.1,4.8,0.1c1.7,0,3.7,0,6.1,0
        c1.5,0,2.3-0.1,2.3-0.4c0-0.2-0.4-0.3-1.2-0.5c-0.8-0.2-1.6-0.3-2.6-0.3h-8.8c0.6-1.2,0.9-2.4,0.9-3.6v-0.8c0.2-0.5,0.3-0.9,0.3-1
        c0-0.7-0.2-1.1-0.6-1.3c-0.4-0.2-0.8-0.3-1.3-0.3c-0.5,0-1-0.2-1.5-0.4c-0.5-0.3-0.9-0.9-1.3-1.8c0.6-0.3,1.9-0.6,3.8-0.7
        c2-0.1,4-0.2,6.1-0.3c2.1,0,3.9-0.1,5.6-0.1c1.6,0,2.4-0.1,2.4-0.2c0-0.2-0.7-0.3-2-0.4c-1.3-0.1-3-0.2-5.1-0.3
        c-2-0.1-4.3-0.2-6.7-0.3c-2.4-0.1-4.8-0.2-7.1-0.3c-2.3-0.1-4.4-0.1-6.2-0.2c-1.8,0-3.1-0.1-3.9-0.1c-0.9,0-1.8,0-2.8-0.1
        c-1,0-2.3-0.1-3.8-0.1c-1.6,0-3.6,0-6.2,0.1c-2.6,0.1-5.8,0.3-9.9,0.5c-2.6-0.1-5.6-0.2-8.9-0.3c-3.3-0.1-6.5-0.1-9.7-0.2
        c-3.2,0-6.2-0.1-9.1-0.1c-2.9,0-5.2,0-7,0c0.3-1.3,0.7-2.9,1.4-4.7c0.7-1.9,1.5-3.8,2.4-5.8c0.9-2,1.9-3.9,2.9-5.6
        c1-1.7,1.9-3,2.7-3.8c8.9-0.9,16.7-1.7,23.5-2.4c6.8-0.7,12.9-1.3,18.4-2c5.4-0.6,10.3-1.4,14.6-2.2c4.3-0.9,8.5-1.9,12.5-3.2
        c0.1,0,0.2-0.1,0.4-0.1c8.1,2,16.8,3.7,26,5c-0.6,0.3-1.2,0.5-1.9,0.8c-1.7,0.7-3.2,1.4-4.5,2c-1.4,0.6-2,1.1-2,1.3
        c0,0.1,0,0.2,0.1,0.3c0,0.1,0.1,0.2,0.1,0.3c0,0.7-0.3,1.1-0.9,1.3c-0.6,0.2-1.2,0.4-1.9,0.5c-0.7,0.1-1.3,0.2-1.9,0.3
        c-0.6,0.1-0.9,0.3-0.9,0.6c0,0.3,0.4,0.5,1.3,0.5c0.8,0,1.5-0.1,2.2-0.3l13-4c-0.2,0.3-0.3,0.7-0.4,1c-0.1,0.3-0.3,0.6-0.4,1
        c-5.4,1.3-9.1,2.2-11.3,2.8c-2.2,0.6-3.3,1-3.3,1.2c0,0.1,0.1,0.1,0.4,0.1c0.4,0,1.1-0.1,2-0.2c0.9-0.1,2-0.3,3.3-0.4
        c1.2-0.2,2.5-0.4,3.9-0.6c1.4-0.2,2.7-0.4,4-0.7l-0.6,1.3c-1.2,0.4-2.4,0.8-3.6,1.2c-1.2,0.4-2.4,0.8-3.4,1.2c-1,0.4-1.9,0.7-2.5,1
        c-0.6,0.3-1,0.4-1,0.5c0,0.1,0.1,0.1,0.4,0.1c0.4,0,1.2-0.1,2.2-0.2c1-0.1,2.5-0.4,4.5-0.8c-0.5,0.2-1.2,0.4-2.1,0.8
        c-0.9,0.3-1.8,0.7-2.8,1.1c-1,0.4-1.8,0.7-2.6,1c-0.7,0.3-1.1,0.4-1.2,0.4l-2.6,0.5c-1.5,0.3-2.3,0.6-2.3,0.9
        c0,0.2,0.4,0.3,1.2,0.3c0.5,0,0.9,0,1.3-0.1c2.3-0.5,4.5-1,6.5-1.5c2-0.5,3.9-1,5.8-1.5l-0.3,0.6c-1.9,0.5-3.7,1-5.5,1.5
        c-1.8,0.5-3.4,0.9-4.8,1.3c-1.4,0.4-2.5,0.8-3.4,1c-0.9,0.3-1.3,0.4-1.3,0.5c0,0.2,0.4,0.3,1.3,0.3c0.4,0,0.8,0,1.2-0.1
        c0.4,0,0.8-0.1,1.2-0.2l10.5-2.9l-1.2,2.4c-2.1,4.1-3.8,7.3-5.1,9.7c-1.3,2.4-2.3,4.4-3.1,6c-0.8,1.6-1.4,3.1-1.8,4.3
        c-0.4,1.3-0.9,2.9-1.3,4.9c-1.7,3.1-3.6,6.6-5.6,10.6c-2,4-4,8.1-6.1,12.3c-2,4.2-4,8.4-5.9,12.4c-1.9,4.1-3.6,7.6-5.1,10.7
        c-1.4,3.1-2.6,5.5-3.5,7.3c-0.9,1.8-1.3,2.5-1.3,2.2v0.1c0.2,0,0.6-0.6,1.4-1.8c-1,2.9-1.7,5.2-2.2,6.9l-0.6,0.6l0.5-0.4
        c0,0.6,0,1.2-0.1,1.8c0,0.6-0.1,1.2-0.3,1.8c-0.7,1.3-1.4,2.6-2,3.8c-0.7,1.3-1.3,2.4-1.9,3.5c-0.6,1-1.2,2.2-1.9,3.5l-1.3,2.4
        c-0.6,1.1-0.9,1.8-0.9,2c0,0.2,0,0.3,0.1,0.3c0.4,0,0.9-0.6,1.5-1.8l4.9-8.7c0.4-0.4,0.9-0.9,1.5-1.5c0.6-0.6,1.1-1.2,1.7-1.8
        c0.6-0.6,1.2-1.1,1.8-1.5c0.6-0.4,1.2-0.6,1.7-0.6c-3.5,4.8-5.9,8.3-7.2,10.6c-1.3,2.3-2,3.7-2,4.4c0,0.3,0.1,0.5,0.4,0.5
        c0.5,0,1.3-0.4,2.5-1.3c1.2-0.9,2.2-1.8,3-2.6c-0.1,0.3-0.1,0.7-0.1,1c0,0.3,0,0.7,0,1.2l-0.4,0.4l-4.6,10.5l5.4-8.6
        c0,0.1,0,0.1,0.1,0.2c0.1,0,0.1,0.1,0.1,0.2c0.3-0.2,1-1,1.9-2.6c0.9-1.6,1.9-3.2,2.9-4.8v0.9l1.8-1.8v-1.2l-1.2,1.2
        c0.8-1.2,1.5-2.2,2-2.9c0.6-0.8,1.1-1.2,1.4-1.2c0.1,0,0.2,0,0.3,0.1c0,0.3-0.3,1.2-1,2.9c-0.7,1.7-1.4,3.6-2.3,5.8
        c-0.9,2.2-1.7,4.3-2.4,6.4c-0.8,2.1-1.2,3.6-1.4,4.7c0,0.1,0,0.1,0.1,0.1c0.3,0,1-0.7,2-2c1-1.4,2.1-3.1,3.4-5.1
        c1.3-2,2.6-4.2,4-6.5c1.4-2.3,2.7-4.5,3.9-6.5c1.2-2,2.6-4.3,4.1-7l-21.4,39.4c0.3,0,1.3-1.3,3-4c1.7-2.7,3.9-6.1,6.4-10.2
        c2.5-4.1,5.3-8.8,8.3-13.9c3-5.1,5.9-10.1,8.7-15l0.5,1.7c-1.5,2.5-2.9,4.9-4.3,7.4c-1.5,2.5-2.9,4.9-4.2,7.2
        c-1.4,2.3-2.7,4.6-3.9,6.7c-1.2,2.1-2.3,3.9-3.1,5.6v-0.3l-1.8,1.8l-4.6,10.5l3.5-5.6v0.1c0.4-0.4,0.9-0.7,1.3-0.9
        c0.4-0.2,0.6-0.5,0.6-1c0.5-1,1.3-2.4,2.4-4c1.1-1.7,1.8-3,2.2-4l12.7-21.4l2.8-4.9c0.5,1.5,3.3,3,8.3,4.5c5,1.5,12.3,2.2,21.8,2.2
        c5.8,0,12-0.8,18.6-2.5c6.6-1.7,13.2-4.1,19.9-7.4c6.7-3.2,13.1-7.3,19.4-12.2c6.3-4.9,12.1-10.6,17.4-17.1
        c5.3-6.5,9.8-13.7,13.6-21.7c3.8-8,6.5-16.8,8.3-26.5c0.3-1.4,0.4-2.7,0.4-4.1c0-3.5-0.7-6.8-2-10c-0.6-1.4-1.3-2.7-2-4
        c36.2-4.4,65-13.8,86.3-28.2c30.4-20.7,45.6-53.5,45.6-98.4C1567,84.4,1551.7,51.8,1521.2,31.1z M1255,343.5c-0.1,0-0.2,0-0.3,0
        C1254.8,343.4,1254.9,343.5,1255,343.5z M1251.2,343.7c0,0.4-0.3,0.7-0.8,0.8c-0.6,0.1-1.2,0.1-1.9,0.1c-0.2-0.3-0.3-0.6-0.3-0.9
        H1251.2z M1281.6,280.8c1,0,2,0,2.9,0.1c0.9,0.1,1.6,0.3,2.2,0.5c0.6,0.3,0.8,0.8,0.8,1.5c0,0.3-0.2,0.6-0.6,0.8
        c-0.4,0.2-0.9,0.4-1.4,0.5c-0.5,0.1-1,0.2-1.5,0.3c-0.5,0-0.7,0.1-0.8,0.1c-0.8,0-1.3,0-1.5-0.1c-0.3-0.1-0.4-0.3-0.6-0.6
        c-0.1-0.3-0.3-0.7-0.6-1.2c-0.3-0.5-0.9-1.2-1.7-2C1279.6,280.8,1280.6,280.9,1281.6,280.8z M1263.9,280.8c0.1,0,0.2-0.1,0.3-0.1
        l10.1,0.3c0.6,0,1,0.1,1.2,0.4c0.2,0.3,0.3,0.6,0.3,1c0,0.6,0,1.1-0.1,1.5c-0.1,0.4-0.2,0.6-0.3,0.6c-0.9,0-1.7-0.2-2.3-0.5
        c-0.6-0.3-1.1-0.5-1.5-0.5c-0.8,0-1.3-0.1-1.7-0.3c-0.4-0.2-0.8-0.4-1.3-0.6c-0.5-0.3-1.2-0.5-1.9-0.8c-0.8-0.3-1.8-0.6-3.2-1
        C1263.6,280.9,1263.8,280.9,1263.9,280.8z M1222.8,292.2c-3.6-0.1-6.2-0.2-7.8-0.2h-3.5c3.8-0.1,7-0.2,9.6-0.3
        c2.6-0.1,5.3-0.1,8-0.2c2.7,0,4.9-0.1,6.6-0.2C1230.7,292.1,1226.4,292.3,1222.8,292.2z M1223.8,280.6c1.3,0.2,2.5,0.3,3.6,0.4
        c1.2,0.1,2.5,0.3,4.2,0.6h-0.3c-0.3,0.3-0.6,0.4-1.2,0.4c-1.6,0-3.1-0.1-4.3-0.2c-1.3-0.1-2.6-0.2-4.1-0.2l-0.3,0.3
        c-0.1,0.1-0.3,0.1-0.6,0.1c-0.3,0-0.5-0.4-0.5-1.2v-0.8C1221.4,280.3,1222.5,280.5,1223.8,280.6z M1297.2,340.6l-0.5,1.4
        c-0.1,0.1-0.2,0.1-0.3,0.1L1297.2,340.6z M1291.2,348.8c-0.3,0.7-0.6,1.4-0.9,2.1c-0.3,0.7-0.6,1.4-0.9,2.1l-0.1,0.1l1-5.1
        c0.1-0.4,0.3-0.6,0.6-0.6c0.3,0,0.5,0,0.8,0.1c0.3,0.1,0.5,0.1,0.6,0.1L1291.2,348.8z M1294.8,343.8l-0.8,0.6l1.7-2.3L1294.8,343.8
        z M1298.5,354.8c-0.4,1.2-0.7,2.5-1,3.8l-1.7,1.4c0.3-1.2,0.6-2.4,0.9-3.6c0.3-1.2,0.6-2.4,0.8-3.7l1.8-1.8
        C1299.1,352.2,1298.8,353.5,1298.5,354.8z M1304.2,347.3c-0.4,0.8-0.9,1.4-1.4,1.9c-0.3,0.3-0.4,0.5-0.5,0.6c0.2-0.7,0.4-1.3,0.8-2
        c0.4-0.6,0.8-1.3,1.2-2l0.1-0.1l0.3,0.8L1304.2,347.3z M1313.8,352.4c-0.5,0-1,0.2-1.6,0.6l1.5-2.6c0.5,0,0.8,0.3,0.8,0.9
        C1314.5,352.1,1314.3,352.4,1313.8,352.4z M1361.7,259.3l-2.8,0.8v-0.4l1.9-0.4H1361.7z M1399.3,260.5c2.9,1.8,4.3,4.8,4.3,9
        c0,2-0.4,4.5-1.2,7.3c-1.5,5.5-3.6,10.9-6.1,16.2c-2.5,5.3-5.4,10.4-8.5,15.2c-3.2,4.8-6.6,9.2-10.2,13.2
        c-3.7,4.1-7.4,7.5-11.1,10.5c-3.8,2.9-7.5,5.2-11.1,6.9c-3.7,1.7-7.1,2.5-10.2,2.5c-4.1,0-7.1-0.1-9.1-0.2c-2-0.1-3.4-0.3-4.3-0.4
        c-0.9-0.2-1.6-0.3-2-0.4c-0.4-0.1-1.2-0.2-2.2-0.2c-1.2,0-2.4,0.1-3.7,0.3c-1.3,0.2-3,0.9-5.2,2c2.4-4.3,4.9-8.8,7.7-13.7
        c2.7-4.9,5.3-9.4,7.7-13.8c2.4-4.3,4.5-8.1,6.3-11.3c1.8-3.2,3-5.4,3.6-6.5c2.2-4.3,4.2-8.3,5.8-11.8c1.7-3.5,3.1-6.8,4.2-9.7
        c1.2-2.9,2.1-5.5,2.9-7.8s1.4-4.3,1.8-6.1l9.7-2.2l1.4-0.4l5.5-0.4c0.4,0,0.9-0.1,1.5-0.2c2.4,0,4.9,0.1,7.4,0.1
        c3.2,0,6.3,0,9.4-0.1C1395.8,258.9,1397.7,259.6,1399.3,260.5z M1484.3,161.8c-3.7,8.4-9.8,14.9-18.1,19.6
        c-8.4,4.7-19.3,7.9-32.7,9.5c-13.5,1.6-29.9,2.4-49.4,2.4c-19.5,0-35.9-0.8-49.4-2.4c-13.5-1.6-24.4-4.8-32.7-9.5
        c-8.4-4.7-14.4-11.3-18.1-19.6c-3.7-8.4-5.6-19.3-5.6-32.7c0-13.5,1.9-24.4,5.6-32.7c3.7-8.4,9.8-14.8,18.1-19.5
        c8.4-4.6,19.3-7.7,32.7-9.4c13.5-1.6,29.9-2.4,49.4-2.4c19.5,0,35.9,0.8,49.4,2.4c13.5,1.6,24.4,4.7,32.7,9.4
        c8.4,4.6,14.4,11.1,18.1,19.5c3.7,8.4,5.6,19.3,5.6,32.7C1489.9,142.5,1488,153.5,1484.3,161.8z"/>
    <path class="st0" d="M594.3,361.7c0.6-1.1,1.2-2.2,1.7-3.2c0.5-1,0.8-1.7,0.8-2v-0.1c-0.2,0.3-0.6,0.9-1.2,2
        c-0.6,1.1-1.3,2.2-2,3.5c-0.7,1.3-1.4,2.5-2,3.6c-0.6,1.1-0.9,1.8-1,2.2c0.7-0.3,1.1-0.6,1.3-0.8c0.2-0.2,0.3-0.3,0.3-0.5
        c-0.1-0.1,0.1-0.6,0.6-1.5C593.1,363.9,593.7,362.8,594.3,361.7z"/>
    <path class="st0" d="M830,347.6c1-2.4,1.6-6.2,1.7-11.3c0.1-3.1,0.2-5.9,0.3-8.5c0.1-2.6,0.3-5.2,0.4-7.7c0.2-2.6,0.3-5.2,0.4-8
        c0.1-2.8,0.3-5.9,0.4-9.3c4.1-0.2,7-0.4,8.7-0.6c1.7-0.2,2.6-0.4,2.6-0.7c0-0.3-1.1-0.7-3.3-1c-2.2-0.3-4.8-0.6-7.9-0.9
        c0-0.5,0-1,0.1-1.5c0-0.5,0.1-1,0.1-1.5c1.2-0.1,2.1-0.1,2.8-0.2c0.7,0,1-0.1,1-0.2c0-0.2-1.3-0.3-3.8-0.3v-0.1c1.3,0,3,0,5.2,0
        c2.2,0,4.4,0,6.6,0.1c2.2,0,4.1,0.1,5.8,0.1s2.5,0,2.6,0h2.7c1.5,0,2.3-0.1,2.3-0.4c0-0.2-0.5-0.3-1.6-0.4c-1.1-0.1-2.4-0.2-4-0.3
        c-1.6-0.1-3.4-0.1-5.4-0.2c-2,0-3.9-0.1-5.8-0.1c-1.9,0-3.6-0.1-5.1-0.1c-1.5,0-2.6-0.1-3.3-0.1v-1.7c0.5,0,0.8-0.1,0.8-0.3v-0.1
        c2.9,0,5.3,0,7.3,0.1c2,0.1,3.8,0.1,5.4,0.2c1.7,0,3.4,0.1,5.1,0.1c1.7,0,3.9,0.1,6.5,0.1c1.5,0,2.3-0.1,2.3-0.4
        c0-0.2-0.4-0.3-1.2-0.5c-0.8-0.2-1.6-0.3-2.6-0.3h-23.7l11.1-3.2l-11-0.4c0.1-3.7,0.1-7.7,0.2-12.1c0-4.4,0.1-9.4,0.1-14.9
        c0-0.8-0.1-2.1-0.3-4c-0.2-1.9-0.5-4.1-0.9-6.7c-0.4-2.6-1-5.4-1.9-8.4c-0.8-3.1-1.8-6.1-3.1-9.2c-1.2-3.1-2.8-6-4.5-8.9
        c-1.8-2.9-3.9-5.4-6.4-7.6c-1.7-1.4-3.3-2.9-4.9-4.5s-3.1-2.3-4.7-2.3c-0.7,0-1.3,0.2-1.9,0.6c-0.9,0.9-2.3,2.6-4.3,5.1
        c-2,2.4-4.3,5.3-7,8.7c-2.7,3.4-5.6,7-8.7,10.9c-3.1,3.9-6.2,7.8-9.3,11.8c-3.1,3.9-6,7.7-8.9,11.3c-2.9,3.6-5.4,6.7-7.5,9.3
        c-0.5,0.3-1.5,1.3-3,3c-1.5,1.7-3.2,3.9-5.2,6.3c-2,2.5-4,5.1-6.1,7.9c-0.2,0.2-0.3,0.4-0.4,0.6h-19c-0.3-0.1-0.7-0.1-1.2-0.1
        c-0.4,0-0.9,0-1.3,0c1.3-1.6,2.5-3.5,3.7-5.6c1.2-2.1,2.3-4.5,3.2-7c0.9-2.5,1.7-5.1,2.3-7.9c0.6-2.7,0.9-5.6,0.9-8.6
        c0-1.5-0.6-3.7-1.9-6.6c-1.2-2.9-2.9-5.7-4.9-8.5c-2-2.8-4.4-5.2-7.2-7.3c-2.7-2-5.5-3.1-8.4-3.1c-4.8,0-9.7,0.3-14.6,0.8
        c-5,0.6-9.9,1.3-14.8,2.2c-4.9,0.9-9.5,2-13.9,3.2c-4.4,1.2-8.5,2.4-12.2,3.6c-3.7,1.2-6.8,2.4-9.3,3.6c-2.6,1.2-4.4,2.2-5.5,3.1
        c-0.2,0.5-0.9,1.9-2.2,4.2c-1.3,2.3-3,5.1-4.9,8.5c-2,3.4-4.1,7.2-6.5,11.5c-2.3,4.3-4.6,8.6-6.8,13l-1,1.9l-1.2,0.4
        c-9.7,0.3-17.2,0.5-22.6,0.6c-5.3,0-9.2,0.1-11.7,0.1c-2.5,0-3.9,0.1-4.4,0.3c-0.5,0.1-0.7,0.4-0.7,1c0,0.3,0.4,0.6,1.2,0.8
        c-0.4,0.1-0.9,0.2-1.5,0.4c-0.6,0.2-0.9,0.5-0.9,1c0,0.6,0.3,1,1,1.2c0.6,0.2,1.9,0.3,3.9,0.3c-1.3,0.3-1.9,0.5-1.9,0.6
        c0,0.2,1.9,0.5,5.8,0.9c3.9,0.4,9.1,0.6,15.7,0.6h8.1v0.8c0,1.7,0.1,3,0.4,4c0.3,0.9,0.8,1.6,1.7,2c-2.1,4.6-4,9.1-5.6,13.4
        c-3.2,6.9-5.9,12.8-8.1,17.5c-2.1,4.8-3.8,8.6-5.1,11.6c-1.3,2.9-2.2,5.1-2.7,6.5c-0.5,1.4-0.8,2.2-0.8,2.5c0.2,0,0.6-0.6,1.2-1.7
        c0.6-1.2,1.4-2.5,2.2-4.1c0.9-1.6,1.7-3.2,2.7-5c0.9-1.7,1.8-3.3,2.7-4.5c-0.2,0.3-0.5,1-1,2.1c-0.5,1.2-1,2.5-1.6,4
        c-0.6,1.5-1.2,3.2-1.9,4.9c-0.7,1.7-1.3,3.3-1.9,4.8c-0.6,1.4-1,2.6-1.3,3.5c-0.3,0.9-0.5,1.3-0.5,1.2c0.1,0,0.4-0.5,0.9-1.5
        c0.5-1,1.3-2.6,2.4-4.8c-0.8,2-1.4,3.7-1.9,4.9c-0.5,1.2-0.9,2.3-1.3,3.3c-0.4,1-0.6,1.6-0.6,1.7l-1.2,2.6
        c-0.3,0.7-0.6,1.2-0.6,1.5c-0.1,0.3-0.1,0.5-0.1,0.7c0,0.2,0,0.3,0.1,0.3c0.3,0,0.7-0.6,1.4-1.7c0.7-1.1,1.4-2.4,2.2-4
        c0.8-1.5,1.6-3.1,2.4-4.7c0.8-1.6,1.4-2.9,1.9-4l0.4,0.6l-2.6,5.4c-0.3,0.7-0.6,1.2-0.6,1.5c-0.1,0.3-0.1,0.5-0.1,0.7v0.1
        c0.3,0,0.7-0.3,1.1-0.9c0.4-0.6,0.8-1.4,1.2-2.3l1.9-3.8c0.1,0,0.2-0.1,0.4-0.4l4.7-6.7c-2.5,4.9-4.2,8.4-5.1,10.4
        c-0.9,2-1.4,3.1-1.4,3.3h0.1c0.1,0,0.4-0.4,0.8-1.2c0.5-0.8,1-1.6,1.5-2.6c0.5-0.9,1-1.8,1.5-2.6c0.5-0.8,0.7-1.2,0.8-1.2v0.3
        c-0.7,1.4-1.2,2.5-1.7,3.4c-0.4,0.9-0.8,1.7-1.2,2.4c-0.3,0.7-0.5,1.1-0.5,1.2c-0.7,1.3-1.4,2.6-2,4c-0.7,1.4-1.1,2.2-1.3,2.2
        l-0.4,1l-0.3,0.8c0,0.1,0,0.1,0.1,0.1c0.1,0,0.6-0.6,1.5-1.9c0.9-1.3,2-2.9,3.2-4.7c1.2-1.9,2.5-3.8,3.8-5.8c1.3-2,2.3-3.8,3.2-5.3
        l1.8-2c-0.4,0.9-1,1.9-1.9,3.2c-0.8,1.3-1.6,2.6-2.4,3.9c-0.8,1.3-1.4,2.6-2,3.7c-0.6,1.2-0.9,2.1-0.9,2.8c0,0.1,0,0.1,0.1,0.1
        c0.1,0,0.2-0.1,0.4-0.4c0.2-0.3,0.4-0.6,0.6-0.9l5.2-9.2l-1.5,4.3c-0.1,0.3-0.1,0.5-0.1,0.8c0,0.5,0.3,0.8,0.8,0.8
        c2,0,4.2-1,6.6-2.9c2.3-1.9,4.7-4.4,7.2-7.4c2.4-3,4.8-6.4,7.2-10.2c2.4-3.8,4.6-7.5,6.7-11.3c2-3.7,3.9-7.2,5.6-10.5
        c1.7-3.3,3-5.9,3.9-8h1.2c1.6,0,4.1,0.1,7.5,0.3c3.4,0.2,7.3,0.3,11.8,0.3c3.9,0,8.2-0.2,12.7-0.5c4.6-0.3,9.2-1,13.8-2.1
        c4.6-1.1,9.2-2.5,13.7-4.4c4.5-1.9,8.6-4.3,12.3-7.4c8.9,0,16.6,0,23.2-0.1c-1.6,2.1-3.5,4.6-5.5,7.3c-0.4,0.4-1.5,1.7-3.3,3.8
        c-1.7,2.1-3.7,4.5-5.8,7c-2.1,2.6-4,4.9-5.9,7.1c-1.8,2.2-3,3.5-3.5,3.9c-2.5,2.5-4.8,4.9-7,7.2c-2.2,2.3-4.1,4.4-5.9,6.4
        c-1.7,2-3.2,3.7-4.4,5.2c-1.2,1.5-2,2.7-2.6,3.6c0.5-0.2,1.2-0.6,2-1.4c0.9-0.8,1.9-1.7,3-2.9c1.2-1.2,2.4-2.4,3.6-3.8
        c1.3-1.4,2.6-2.7,4-4.1c0.1,0,0.1,0.1,0.1,0.3c0,0.3-0.4,1-1.2,2.1c-0.8,1.1-1.8,2.3-3,3.8c-1.2,1.5-2.5,3-4,4.5
        c-1.4,1.6-2.8,3.1-4,4.5c-1.2,1.5-2.2,2.7-3,3.8c-0.8,1.1-1.2,1.9-1.2,2.3c0,0.2,0,0.3,0.1,0.3c0.5-0.3,1.4-1,2.7-2.2
        c1.3-1.2,2.8-2.6,4.5-4.2c1.7-1.6,3.5-3.3,5.3-5.1c1.8-1.8,3.5-3.5,5.1-5c1.6-1.5,2.9-2.8,3.9-3.8c1-1,1.6-1.5,1.7-1.5
        c-0.6,1.2-1.7,2.6-3.4,4.2c-1.7,1.6-3.1,3-4.4,4.3c-0.2,0.2-0.3,0.5-0.5,1c-0.2,0.5-0.4,1-0.6,1.5c-0.2,0.5-0.4,1-0.7,1.3
        c-0.3,0.4-0.6,0.6-0.9,0.6c-1,1.1-2,2.3-3.1,3.7c-1,1.4-1.5,2.5-1.5,3.5c0,0.4,0.1,0.7,0.3,1c0.2,0.2,0.3,0.5,0.3,0.8
        c0,0.5-0.1,1.1-0.4,1.7c-0.3,0.6-0.6,1.3-1,1.9c-0.3,0.6-0.7,1.3-1,1.9c-0.3,0.6-0.4,1.2-0.4,1.7c0,0.6,0.3,1.1,0.8,1.4
        c0.3,0,1.2-0.5,2.5-1.5c1.3-1,2.7-2.1,4.2-3.3c1.5-1.2,2.8-2.3,4.2-3.3c1.3-1,2.2-1.5,2.6-1.5c0.2,0,0.3,0.1,0.3,0.3
        c0,0.1-0.6,0.9-1.7,2.4c-1.2,1.5-2.4,3.1-3.8,4.9c-1.4,1.8-2.7,3.5-3.8,5s-1.7,2.3-1.7,2.4c0.3,0,1.2-0.6,2.6-1.9
        c1.4-1.3,2.9-2.7,4.5-4.2c1.7-1.5,3.2-3,4.7-4.3c1.5-1.3,2.4-2,2.8-2.1c0.1,0,0.1,0,0.1,0.1c0,0.3-0.3,0.9-1,1.9
        c-0.6,1-1.5,2.2-2.5,3.6c-1,1.4-2.1,2.8-3.2,4.3c-1.1,1.5-2.2,3-3.2,4.3c-1,1.3-1.9,2.5-2.5,3.5c-0.6,1-1,1.6-1,1.7
        c0.4-0.1,1.3-0.6,2.5-1.7c1.2-1,2.5-2.2,3.9-3.4c1.4-1.2,2.6-2.4,3.7-3.4c1.1-1,1.7-1.6,1.9-1.8c2.7-2.5,5.4-5,8.1-7.5
        c2.6-2.5,5.1-5,7.4-7.4c2.3-2.4,4.4-4.6,6.2-6.6c1.8-2,3.4-3.7,4.7-5.2c0.3-0.3,1.1-1.2,2.6-2.7c1.4-1.4,3-3,4.7-4.7
        c1.7-1.7,3.3-3.2,4.9-4.6c1.5-1.4,2.6-2.2,3.1-2.5c-0.3,0.2-0.9,0.5-1.8,1c-0.9,0.5-1.8,1-2.8,1.6c-1,0.6-1.9,1.1-2.9,1.5
        c-0.9,0.5-1.6,0.7-1.9,0.7c-0.2,0-0.3-0.1-0.3-0.3c0.7-0.6,1.5-1.3,2.5-2c1-0.8,1.9-1.5,2.9-2.1c0.9-0.6,1.8-1.2,2.5-1.7
        c0.7-0.5,1.2-0.8,1.3-1c0.6-0.3,1.5-1.2,2.8-2.5c1.2-1.3,2.6-2.9,4.2-4.7c1.6-1.8,3.2-3.7,4.9-5.7c1.7-2,3.3-3.9,4.9-5.7
        c1.4,0.1,2.8,0.1,4.2,0.1c1.4,0,2.9,0,4.5,0c5.4,0,10.3,0,14.7,0c4.4,0,8.6,0,12.4-0.1v20c0,1.5,0.2,3.8,0.6,6.7
        c0.4,2.9,0.9,5.8,1.5,8.8c0.6,2.9,1.3,5.5,2.1,7.7c0.8,2.2,1.6,3.3,2.4,3.3c0.8,0,1.5-0.1,2.3-0.3c0.8-0.2,1.5-0.6,2.2-1.2
        c2.9,2.1,5.2,3.2,6.8,3.2C827.6,351.2,829,350,830,347.6z M602.5,336.6c-0.4,1.1-0.7,2-1,2.9c-0.3,0.9-0.4,1.3-0.4,1.4v0.3
        c0,0.2-0.3,0.4-1,0.8c0-0.3,0.2-0.9,0.6-2c0.4-1.1,0.8-2.2,1.3-3.4c0.5-1.2,0.9-2.3,1.3-3.3c0.4-1,0.7-1.6,0.8-1.7v0.1
        c0,0.3-0.1,1-0.4,1.9C603.3,334.5,602.9,335.5,602.5,336.6z M610.9,328.4c-0.2,0.4-0.4,0.9-0.6,1.3c-0.3,0.5-0.5,0.9-0.6,1.3
        c-0.2,0.4-0.3,0.6-0.3,0.7v0.1l0.1-0.1c-0.1,0.1-0.1,0.2-0.1,0.4c0,0.3,0,0.5,0.1,0.6c0,0.2,0,0.3,0.1,0.4
        c-1.4,2.7-2.5,4.9-3.3,6.5c-0.8,1.6-1.6,3-2.2,4.3c-0.7,1.3-1,1.9-1,1.9v-0.1c0-0.9,0.4-2.3,1.3-4.3c0.9-2,1.8-4.1,2.8-6.2
        c1-2.1,1.9-3.9,2.8-5.5c0.8-1.6,1.2-2.4,1.1-2.4c0.1,0,0.1,0,0.1,0.1C611.2,327.6,611.1,327.9,610.9,328.4z M616.2,329.6
        c0.1-0.1,0.1-0.2,0.2-0.3c0-0.1,0.1-0.2,0.3-0.4l0.3,0.3c0.1,0.1,0.1,0.2,0.2,0.3c0,0.1,0.1,0.2,0.2,0.3l0.1,0.6
        c-0.2,0-0.4-0.1-0.7-0.3c-0.3-0.2-0.5-0.3-0.7-0.3C616,329.8,616.1,329.7,616.2,329.6z M617.6,338.5c-0.4,0.3-0.8,0.4-1.3,0.4
        c-0.6,0-1-0.3-1.3-0.8c-0.1,0-0.1,0-0.1-0.1v-0.5c0-0.2,0.1-0.4,0.4-0.6c0.2-0.2,0.3-0.3,0.5-0.4c1.1,0.3,1.7,0.6,1.9,0.6
        c0.2,0.1,0.3,0.2,0.5,0.4C618.2,337.9,618,338.2,617.6,338.5z M623.1,324l-0.9,0.5c0.1-0.2,0.2-0.5,0.4-0.9
        c0.2-0.4,0.3-0.7,0.3-0.9c0.1,0.1,0.2,0.1,0.3,0.1c0.1,0.1,0.2,0.1,0.3,0.1c0.1,0,0.2,0.1,0.4,0.3L623.1,324z M668.8,286
        c-3.4,0.1-9.1,0.2-17.3,0.3l0.3-0.5l0.1-0.3c2.6,0,5.3,0,7.9,0c2.6,0,4.9,0,7,0.1c2.1,0,4.5,0.1,7.1,0.2
        C673.9,285.8,672.2,285.9,668.8,286z M701,265c-0.7,2.6-1.9,5.2-3.6,7.8c-1.7,2.6-4,5-6.9,7.3c-2.9,2.3-6.5,4-10.9,5.2
        c-3.2,0.1-6.2,0.1-8.9,0.1s-5.1,0-7.4,0h-11.5c2-4.7,4.3-9,6.8-13c2.5-4,4.9-8.3,7.4-12.9c0.9-0.9,2.3-1.6,4.1-2.4
        c1.8-0.7,3.8-1.4,6-1.9c2.2-0.6,4.5-1,7-1.3c2.4-0.3,4.8-0.4,7.1-0.4c3.2,0,6,0.4,8.3,1.2c2.3,0.8,3.5,2,3.5,3.7
        C702,260.1,701.7,262.4,701,265z M704,347.7c0.1-0.3,0.5-0.8,1.3-1.7c0.8-0.9,1.6-1.9,2.5-2.9c0.9-1,1.7-1.9,2.5-2.8
        c0.8-0.8,1.2-1.3,1.4-1.5c0,0.2-0.3,0.7-0.8,1.5c-0.6,0.8-1.2,1.7-1.9,2.6c-0.7,0.9-1.4,1.7-1.9,2.4c-0.6,0.7-0.8,1.1-0.8,1.2
        c0,0.3-0.2,0.5-0.7,0.8C705,347.5,704.6,347.7,704,347.7z M712.1,348.6c-0.9,0.9-1.6,1.6-2,1.9c-0.4,0.3-0.6,0.5-0.7,0.5
        c-0.1,0,0-0.2,0.3-0.6c0.3-0.4,0.6-0.8,1-1.2c0.3-0.5,0.8-1.1,1.4-1.7c0.2,0.1,0.3,0.2,0.5,0.4c0.1,0.1,0.1,0.2,0.1,0.3
        L712.1,348.6z M717.7,353.8c-0.6,0.7-1,1.1-1.5,1.3c0-0.3,0.3-0.9,0.8-1.7c0.6-0.8,1-1.3,1.2-1.5c0.1,0,0.2,0,0.4,0.1
        c0.1,0.1,0.2,0.1,0.3,0.2c0.1,0,0.2,0.1,0.3,0.3C718.7,352.7,718.2,353.1,717.7,353.8z M722.1,335.3c0,0.1-0.1,0.2-0.3,0.4
        c-0.3,0-0.4,0-0.5-0.1c-0.1,0-0.3-0.3-0.5-0.7h0.8h0.3c0.2,0,0.3,0.1,0.3,0.3V335.3z M719.1,335.5c-1.4,1.5-3,3.1-4.7,4.9
        c-1.7,1.7-3.2,3.4-4.7,4.9c-1.4,1.5-2.6,2.8-3.6,3.8c-0.9,1-1.4,1.5-1.4,1.4c0-0.3,0.5-1,1.4-2.1c0.9-1.2,2.1-2.5,3.6-4.2
        c1.5-1.6,3-3.3,4.7-5.2c1.7-1.8,3.2-3.5,4.7-5.1c1.4-1.5,2.6-2.8,3.6-3.8c0.9-1,1.4-1.5,1.5-1.5c0.6,0,0.9,0.1,1,0.3
        c0.1,0.2,0.2,0.3,0.4,0.3c-0.3,0.2-0.6,0.4-0.9,0.6l-0.5,0.5c-0.1,0-0.6,0.5-1.5,1.5C721.8,332.7,720.6,334,719.1,335.5z
         M724.3,345.1c-0.3,0-0.7-0.1-1-0.3c-0.3-0.2-0.4-0.4-0.4-0.7v-0.5c0-0.1,0.1-0.2,0.4-0.4c0.1-0.1,0.2-0.1,0.4-0.1
        c0.7,0.7,1.1,1.1,1.2,1.2c0.1,0.1,0.2,0.2,0.2,0.4C725,344.9,724.8,345.1,724.3,345.1z M726.8,338.3c-0.2,0-0.4-0.2-0.6-0.6
        c-0.3-0.4-0.5-0.6-0.6-0.6l0.3-0.3c0.2-0.2,0.4-0.3,0.8-0.3c0,0.2,0,0.3,0.1,0.4c0,0.2,0,0.3,0.1,0.3c0,0,0.1,0.1,0.1,0.3V338.3z
         M726.2,317.2c-0.2,0.3-0.4,0.6-0.8,1c-0.3,0.4-0.8,1-1.5,1.7c-0.6,0.7-1.5,1.7-2.5,2.9c-1.4,1.7-2.9,3.3-4.2,4.7
        c-1.4,1.4-2.8,2.8-4.3,4l7.5-11.4c1.2-0.9,2.4-1.8,3.6-2.6c1.2-0.8,2-1.2,2.6-1.2h0.3C726.6,316.7,726.3,317,726.2,317.2z
         M734.6,334.8c0,0.6-0.4,0.8-1.2,0.8c-0.4,0-0.8,0-1,0.1c-0.3,0-0.4,0.5-0.4,1.5h-0.5c-0.5,0-0.9-0.2-1-0.5c0-0.9,0.3-2,1-3.1
        c0.6-1.1,1.4-1.7,2.2-1.7c0.5,0,0.7,0.1,0.7,0.4c0,0.3,0.1,0.4,0.6,0.4C734.7,333.6,734.6,334.3,734.6,334.8z M735.4,330.1
        c-0.2,0.2-0.3,0.3-0.4,0.3c-0.3,0-0.6-0.2-1-0.7c-0.4-0.5-0.6-0.8-0.6-1c0-0.3,0-0.6,0.1-0.6c0-0.1,0-0.1,0.1-0.1
        c1.2,0,1.8,0.6,1.8,1.9C735.4,330,735.4,330.1,735.4,330.1z M722.1,287l0.9-1.2c1.1,0,2,0,2.8-0.1c0.8,0,1.2-0.1,1.2-0.2
        c2.6,0,4.7,0,6.3,0.1c1.7,0,3.2,0.1,4.6,0.1c1.4,0,2.9,0.1,4.4,0.1c0.6,0,1.3,0,2.1,0c-0.4,0.5-0.8,1-1.2,1.5
        c-1.6,0-3.3-0.1-5.1-0.1C732.8,287.3,727.5,287.2,722.1,287z M742.3,325.9c-0.3,0.3-0.6,0.5-0.9,0.7c-0.3,0.3-0.7,0.5-1.2,0.6
        c-0.3,0-0.8-0.7-1.3-2.2c0.4,0,0.8-0.2,1-0.5c0.3-0.3,0.6-0.6,0.9-0.8c0.4,0,0.7,0.1,0.9,0.2c0.2,0.1,0.5,0.4,0.9,0.8
        C742.7,325.2,742.6,325.6,742.3,325.9z M807.9,293.6c-1.2,0.1-2.5,0.1-3.8,0c-1.3-0.1-2.7-0.2-4.2-0.3h7.9V293.6z M808.2,261.4
        c0,1,0,2.3-0.1,4c0,1.6-0.1,3.2-0.1,4.7c0,1.5-0.1,2.9-0.1,4c0,1.2,0,1.8,0,2v11.3l-1.5-0.1c-0.7-0.7-2.6-1-5.8-1
        c-2,0-4.3,0.2-7,0.4c-2.7,0.3-5.6,0.7-8.6,1.1c3.8-5,7.7-10,11.5-14.9c3.8-4.9,7.7-9.3,11.5-13.1c0.1,0,0.3-0.2,0.7-0.5
        c0.4-0.3,0.7-0.5,0.8-0.5c0.1,0,0.1,0,0.1,0.1L808.2,261.4z"/>
    <path class="st0" d="M706.9,358.3c0.9-1,1.3-1.5,1.3-1.6c-0.3,0-0.9,0.4-1.8,1.2c-0.9,0.8-1.9,1.6-3,2.6c-1.1,1-2,1.9-2.9,2.8
        c-0.9,0.9-1.4,1.4-1.5,1.6l-3.8,4.3l3.8-3.1c0.4,0,0.7,0,0.7,0c0,0,0.1-0.1,0.1-0.3v-0.3c1.8-1.8,3.2-3.2,4.2-4.3
        C705.1,360.4,706,359.3,706.9,358.3z"/>
    <path class="st0" d="M695.9,356.5c-0.2,0-0.5,0.3-1.1,0.8c-0.6,0.6-1.2,1.2-1.9,1.9c-0.7,0.7-1.4,1.5-2.1,2.2
        c-0.7,0.8-1.2,1.4-1.7,1.9c-0.4,0.5-0.9,1.1-1.5,1.9c-0.6,0.7-1,1.4-1.5,2c-0.4,0.6-0.9,1.4-1.5,2.2c1.2-0.2,2.3-0.8,3.4-1.8
        c1.1-1,2.1-2.1,3-3.2c0.9-0.9,1.9-2.1,3.1-3.6c1.2-1.5,1.9-2.9,1.9-4.3C696,356.5,695.9,356.5,695.9,356.5z"/>
    <polygon class="st0" points="828,363.8 828.5,363.4 828.6,363.1  "/>
    <path class="st0" d="M829.5,380.7l-4.6,10.5l5.4-8.6c-0.3-0.5-0.4-1.3-0.4-2.3L829.5,380.7z"/>
    <polygon class="st0" points="837.2,374.7 837.2,373.5 835.4,375.6 835.4,376.5    "/>
    <path class="st0" d="M834.1,385.5l0.5-1.4C834.5,384.4,834.3,384.9,834.1,385.5z"/>
    <path class="st0" d="M833.6,400.4l3.5-5.6c0-0.9,1-3.2,2.9-6.7l-1.8,1.8L833.6,400.4z"/>
    <polygon class="st0" points="1043.8,215.1 1045.6,213.3 1045.6,212.2 1043.8,214  "/>
    <path class="st0" d="M1155.6,263.5c-0.8-0.3-1.6-0.4-2.6-0.6c-1-0.1-2-0.2-2.9-0.3c-1-0.1-1.7-0.1-2.2-0.1c-1.2,0-2.4,0-3.6,0.1
        c-1.2,0-2.5,0.1-3.6,0.1l-0.3,0.5c2.6,0,5.2,0.2,8,0.7c2.8,0.5,5.3,0.7,7.5,0.7c0.7,0,1-0.1,1-0.3
        C1156.8,264,1156.4,263.7,1155.6,263.5z"/>
    <path class="st0" d="M1184.5,261.3c-0.8,0-1.6-0.1-2.5-0.1c-0.9,0-1.5-0.1-2-0.1l-1.3-0.4c0.3,0.7,1,1.1,2,1.3
        c1,0.2,2.1,0.3,3.2,0.3c0.9,0,1.8-0.1,2.5-0.2c0.7-0.1,1.1-0.3,1.1-0.4c0-0.1-0.3-0.2-0.9-0.3
        C1186,261.4,1185.3,261.3,1184.5,261.3z"/>
    <path class="st0" d="M1175.3,262.1c0-0.1-0.1-0.2-0.4-0.4c-0.3-0.2-0.9-0.4-1.9-0.6c-0.9-0.2-2.2-0.4-3.9-0.6
        c-1.7-0.2-3.9-0.4-6.6-0.4c0.9-0.1,1.8-0.1,2.6-0.1s1.5,0,2.2,0c2.2,0,3.9,0.1,5.1,0.3c1.2,0.2,2.3,0.3,3.2,0.3c1,0,2-0.2,3.1-0.5
        c2.6-0.4,4.4-0.9,5.4-1.3c1.1-0.4,1.6-0.8,1.6-1c0-0.4-0.7-0.8-2.2-1.1c-1.5-0.3-3.1-0.6-4.9-0.8c-1.8-0.2-4.2-0.4-7.2-0.6h2.6
        l1,0.1l1.3-0.1l-2.2-0.4c-0.4,0-1.2,0-2.2-0.1c-0.7,0-1.2-0.1-1.5-0.2h19.9l-2.4-2.5c0.6,0,1.1,0,1.7-0.1c2.4-0.1,5.3-0.2,8.8-0.3
        c0-0.2-0.4-0.3-1.2-0.4c-0.8-0.1-1.6-0.3-2.4-0.6l-10.1-1.9l-2.4-2.5c1.5-0.1,3-0.2,4.2-0.4c2.2-0.2,3.9-0.4,5.2-0.7
        c1.3-0.3,1.9-0.5,1.9-0.8c0-0.1,0-0.2-0.1-0.3c-2.7-1.7-6.4-3.2-11.1-4.5c-2.5-0.7-5.2-1.3-8-1.8l-30.1-31.8
        c-8.7-8.7-15.7-15.6-21-20.6c-5.2-5-10-9.1-14.2-12.3c10.2-2,19.4-5.4,27.5-10.3c8.1-4.9,15-10.8,20.6-17.8
        c5.6-7,9.9-14.8,12.9-23.6c3-8.7,4.5-18,4.5-27.7c0-18-4.1-32.7-12.2-44.1c-8.1-11.5-18.4-20.6-30.9-27.3
        c-12.5-6.7-26.3-11.4-41.5-14c-15.2-2.6-29.9-3.9-44.1-3.9H885l-50.5,65.1h217.7c13.5,0,23.9,2.4,31.4,7.3
        c7.5,4.9,11.2,12.2,11.2,21.9c0,8.7-4.1,15.6-12.3,20.6c-8.2,5-18.3,7.5-30.3,7.5H834.5v127.9h45.7c-0.5,1-0.9,2-1.4,2.9
        c-2.9,6.2-5.3,11.3-7.3,15.4c-2,4-3.6,7.3-4.9,9.8c-1.3,2.5-2.3,4.5-3.1,5.9c-0.8,1.5-1.5,2.7-2,3.8c-0.6,1.1-1.2,2.2-1.8,3.3
        c-0.6,1.1-1.3,2.5-2.2,4.2c-0.9,1.7-1.9,4.1-3.3,6.9c-1.3,2.9-3.1,6.6-5.2,11.3c-2.1,4.7-4.3,9.3-6.6,13.9
        c-2.3,4.6-4.3,8.9-6.3,12.9c-1.9,4.1-3.6,7.7-5,10.8c-1.4,3.2-2.3,5.7-2.6,7.5l1.7-1.4c0.6-0.8,1.1-1.6,1.5-2.5
        c0.4-0.9,0.6-1.8,0.6-2.8l1.8-1.8c0,1.3-0.4,2.5-1.1,3.6c-0.7,1.1-1.5,2.1-2.2,3.1l-0.6,0.4l-1,1.3l-0.8,0.4c0,1-0.2,2.3-0.5,3.9
        c-0.3,1.6-0.9,3-1.5,4.3c-0.2,0-0.3,0-0.5,0.1c-0.3,0.2-0.5,0.4-0.5,0.8c0,0.3,0,0.4,0.1,0.4c0.3,0,0.7-0.3,1.3-1
        c0.6-0.6,1.3-1.4,2-2.2c0.8-0.8,1.5-1.5,2.3-2.2c0.8-0.6,1.5-1,2.2-1c-3.5,4.8-5.9,8.3-7.2,10.6c-1.3,2.3-2,3.8-2,4.3
        c0,0.3,0.1,0.5,0.4,0.5c0.6,0,1.5-0.4,2.6-1.3c1.1-0.9,2.1-1.8,2.9-2.6c-0.1,0.3-0.1,0.7-0.1,1c0,0.3,0,0.7,0,1.2l1.4-1.4v1.9
        l-1,1.8c0,0.1,0,0.1,0.1,0.2c0,0,0.1,0.1,0.1,0.2c0.3,0,0.9-0.8,1.9-2.4c1-1.6,2-3.3,3.1-5v-0.3l0.6-0.6c0.8-1.2,1.5-2.2,2-2.9
        c0.6-0.8,1.1-1.2,1.4-1.2c0.1,0,0.2,0,0.3,0.1c0,0.2-0.2,0.7-0.5,1.5c-0.3,0.9-0.8,1.9-1.3,3.3c-0.5,1.3-1.1,2.8-1.7,4.3
        c-0.6,1.5-1.2,3-1.7,4.3l1.5-1.5l0.4-0.6l0.5-0.6l1.8-1.8l-0.5,0.6l-0.4,0.6l-1.3,1.3c-0.5,0.7-0.8,1.4-0.8,2l-1.8,1.8v-0.4
        c-0.4,1.2-0.8,2.3-1.1,3.2c-0.3,0.9-0.4,1.5-0.4,1.8c0,0.1,0,0.1,0.1,0.1c0.3,0,1-0.7,2-2c1-1.4,2.1-3.1,3.4-5.1
        c1.3-2,2.6-4.2,4-6.5c1.4-2.3,2.7-4.5,3.9-6.5c1.2-2,2.6-4.3,4.1-7l-21.4,39.4l0.1,0.1c0.3,0,1.1-1,2.4-3.1c1.4-2.1,3-4.7,4.9-7.8
        c1.9-3.1,3.9-6.5,6-10.2c2.1-3.7,4.1-7.1,5.9-10.2c1.8-3.1,3.4-5.7,4.7-7.8c1.3-2.1,2-3.1,2.2-3.1v0.1c0,0.6-0.5,1.9-1.6,3.9
        c-1.1,2-2.4,4.3-4,7c-1.6,2.7-3.2,5.5-4.9,8.4c-1.7,2.9-3.2,5.5-4.5,7.8v1.9l-2.9,4.9c0.4-0.4,0.9-0.7,1.3-0.9
        c0.4-0.2,0.6-0.5,0.6-1c0.5-1,1.3-2.4,2.4-4c1.1-1.7,1.8-3,2.2-4c2.3-3.9,4.5-7.7,6.6-11.2c2.1-3.5,4.1-6.9,6.1-10.2v0.1l8.2-14.2
        c5.1-8.9,9.5-16.5,13.2-22.9c3.7-6.4,6.8-11.8,9.3-16.3c2.5-4.5,4.5-8.1,6-10.9c1.5-2.8,2.7-5,3.5-6.7c4.4-9.2,8-17.3,10.8-24.4
        c2.8-7,4.9-13.1,6.5-18.1c1.6-5,2.6-9.2,3.2-12.4c0.6-3.2,0.8-5.7,0.8-7.3v-4.7c0-1.1-0.5-2.3-1.5-3.6c-1-1.3-2.3-2.6-3.8-3.7
        c-0.2-0.1-0.4-0.2-0.5-0.4v-29.8h119l7.7,9.2c-0.1,0.2-0.3,0.5-0.4,0.7c-3.5,6.7-7.4,14.1-11.8,22.4c-4.3,8.3-9,17.1-14.1,26.6
        l-5.1,8.2c1.3-2.7,2.6-5.4,3.8-8.1c1.3-2.7,2.6-5.4,4.1-8.1c0.3-0.7,0.6-1.3,0.8-1.8c0.2-0.5,0.3-0.9,0.3-1c0-0.1,0-0.1-0.1-0.1
        c1.4-2.6,2.5-4.8,3.4-6.5c0.9-1.7,1.7-3.3,2.6-4.7c0.8-1.4,1.6-2.9,2.4-4.5c0.8-1.5,1.8-3.5,3-5.8c0.5-1,0.8-1.7,0.8-2
        c0-0.1,0-0.1-0.1-0.1c-0.2,0-0.5,0.3-1,0.9c-0.5,0.6-0.9,1.3-1.3,2l-10.7,21.2l-15.6,31c-0.1,0.1-0.1,0.2-0.1,0.3
        c-3.8,5.8-6.7,10.3-8.8,13.5c-2.1,3.2-3.8,5.5-4.9,7c-1.4-5.7-2.7-10.7-4.1-15c-1.4-4.3-2.8-8.3-4.2-12c-1.5-3.8-3-7.5-4.6-11.2
        c-1.6-3.7-3.4-7.9-5.4-12.5c-0.4-0.9-1.6-1.9-3.6-3.1c-2-1.2-4.1-2.3-6.5-3.5c-2.4-1.1-4.7-2-6.9-2.8c-2.2-0.8-3.8-1.2-4.6-1.2
        c-1.9,0-3.5,0.4-4.7,1.2c-0.1,0-0.2,0-0.3-0.1c-0.3,0.1-0.8,0.8-1.6,2c-0.8,1.3-1.7,2.9-2.8,4.8c-1,1.9-2.1,4-3.3,6.3
        s-2.2,4.5-3.3,6.6c-1,2.1-1.9,3.9-2.7,5.5c-0.8,1.6-1.3,2.6-1.5,3.1c-4.3,8.6-7.9,15.6-10.7,21s-5.1,9.7-7,13.1
        c-1.8,3.4-3.3,6.1-4.4,8.3c-1.1,2.1-2.1,4.3-3,6.6c-0.9,2.3-1.9,4.9-2.9,7.9c-1,3-2.4,7-4.1,12.2c-1.1,3.4-1.7,6.1-1.7,8.1
        c0,1.9,0.3,3.1,1,3.8c0.7,0.6,1.5,1,2.4,1c0.4,0,0.7,0,0.9-0.1c-1.3,1.7-1.9,3.3-1.9,4.9c0,1.8,0.5,3.1,1.5,4
        c1,0.9,2.4,1.3,4.1,1.3c0.5,0,1-0.1,1.5-0.2c0.5-0.1,1-0.4,1.4-0.7c-0.7,1-1.3,1.9-1.7,2.6c-0.5,0.7-0.7,1.9-0.7,3.6
        c0,0.8,0.3,1.2,1,1.2c0.9,0,1.8-0.6,2.8-1.7c1-1.2,2-2.6,3-4.3c1-1.7,2-3.5,3.1-5.4s2-3.6,3.1-5.1c3.2-5.5,6.5-11.5,10.1-18
        c3.1-5.5,6.6-12,10.6-19.3c4-7.3,8.2-15,12.5-23.1c0.3-0.7,0.6-1.2,0.9-1.7c1,4.9,2.3,10,3.8,15.4c1.5,5.4,3.5,10.8,5.8,16.3
        c2.3,5.5,5,10.9,8.2,16.3c3.2,5.4,6.9,10.5,11.3,15.5c0.8,0.9,1.9,1.3,3.5,1.3c1.4,0,2.9-0.3,4.5-0.9c1.7-0.6,3.3-1.3,5-2.1
        c1.7-0.8,3.3-1.6,4.8-2.5c1.5-0.9,2.8-1.5,3.8-2c0.7-0.3,1.2-0.7,1.5-1.2c0.3-0.4,0.5-0.9,0.7-1.3c0.2-0.4,0.3-0.8,0.3-1.1
        c0-0.3,0.1-0.5,0.3-0.7c1.7-3.3,3.2-6.2,4.3-8.7c1.2-2.5,2.2-4.6,3.1-6.5c0.6-0.7,1.2-1.6,1.9-2.6c0.6-1.1,1.4-2.5,2.4-4.2
        c0.9-1.8,2.5-4.6,4.7-8.6c2.2-3.9,4.6-8.4,7.3-13.5c2.7-5.1,5.5-10.4,8.3-16c1.9-3.7,3.7-7.3,5.3-10.7c0.4,0.3,1,0.5,1.8,0.6
        c1.5,0.3,4.6,0.4,9.3,0.4c-1.5,0.2-2.6,0.3-3.4,0.3c-0.8,0-1.2,0.2-1.2,0.3c0,1.7,3.9,2.6,11.8,2.6c2.3,0,4.9-0.1,7.9-0.3
        c3-0.2,6.4-0.4,10.2-0.6l2.6,0.3c-1.5,2.5-3.2,5.4-4.9,8.6c-1.7,3.3-3.4,6.7-5.1,10.2c-1.7,3.5-3.3,7.1-4.9,10.6
        c-1.6,3.5-3,6.7-4.2,9.6c-1.2,2.9-2.2,5.3-3,7.3c-0.8,2-1.3,3.2-1.5,3.7c-1.8,4.4-3.2,8.1-4.2,11c-1,2.9-1.8,5.5-2.3,7.9
        c-0.5,2.4-0.9,4.8-1,7.2c-0.2,2.4-0.3,5.4-0.3,8.8c0,2.1,0,4.5,0.1,7.2c0,2.6,0.1,5.8,0.1,9.3c0,0.9,0.8,1.9,2.4,3
        c1.6,1.2,3.5,2.3,5.7,3.3c2.2,1.1,4.5,2,7,2.8c2.4,0.8,4.5,1.2,6.3,1.2c2.3,0,3.6-0.7,4-2c0.9-4.7,2.3-10,4.1-15.9
        c1.8-5.9,3.9-12.1,6.2-18.5c2.3-6.5,4.9-13.2,7.7-20c2.8-6.9,5.6-13.6,8.6-20.1c2.9-6.5,5.9-12.7,8.8-18.7
        c2.9-5.9,5.8-11.3,8.5-16.1c0.3-0.1,0.7-0.1,1.2-0.1c0.5,0,1,0.1,1.3,0.2s0.8,0.2,1.2,0.2c0.3,0,0.7-0.1,1.4-0.3h0.1
        c7.2,0,14,0,20.6-0.1c6.6,0,12.4-0.1,17.4-0.1c5,0,9.1,0,12.1-0.1C1173.8,262.2,1175.3,262.2,1175.3,262.1z M828.7,375.2
        c-0.4,1.1-0.8,2.1-1.3,3.1h-0.3l-1.5,1.8h-0.3l0.6-0.6c0.4-0.8,0.8-1.7,1.1-2.7c0.3-1,0.8-1.9,1.5-2.6l1.8-1.8
        C829.6,373.1,829.1,374.1,828.7,375.2z M838,366l-1.8,1.8l0.3-0.9l1.8-1.8L838,366z M840.7,351.2l-0.3,0.5c-0.1,0-0.1,0-0.2,0.1
        c0,0-0.1,0.1-0.2,0.1L840.7,351.2z M843.4,364.4c0,0-0.1,0.1-0.1,0.2l-0.5,0.4l-1.5,2.7l-1.4,1.2l-0.4,0.6l-0.6,0.4l1-1l1.3-2.3
        l2.3-2.3C843.5,364.3,843.5,364.3,843.4,364.4z M847.6,354.4l-1.8,1.8l2.8-3.1L847.6,354.4z M1053,214.5c-0.1-0.1-0.2-0.1-0.4-0.1
        c0-0.1,0.1-0.1,0.1-0.2L1053,214.5z M1047.3,214.3c-0.2-0.6-0.3-1-0.5-1c-0.2,0-0.7,0.7-1.5,2c-0.8,1.3-1.7,2.8-2.7,4.3
        c-1,1.5-1.9,3-2.8,4.3c-0.9,1.3-1.6,2-2,2c-0.2,0-0.3-0.1-0.3-0.3c0-0.3,0.2-0.9,0.5-1.7l1.8-1.8l1.3-2.3l1-1l-2.4,2.2l-1.7,2.7
        c0.4-1.1,1-2.6,1.7-4.4c0.7-1.8,1.4-3.7,2.1-5.6c0.7-1.9,1.4-3.5,1.9-5c0.6-1.4,0.9-2.3,1.1-2.7l0.6-0.6l6.8,8.1
        c-0.2,0.4-0.3,0.7-0.5,1.1c-0.7,0.4-1.4,1-2.2,1.6c-0.8,0.6-1.6,1.3-2.2,2c0.2-0.7,0.3-1.3,0.3-1.9
        C1047.5,215.6,1047.4,214.9,1047.3,214.3z M1042.2,235.6c0.3-0.9,0.7-1.7,1.1-2.4s0.7-1.6,1-2.4l-1.2,5.6c-0.1,0.4-0.3,0.6-0.8,0.6
        c-0.2,0-0.4,0-0.6-0.1c-0.3-0.1-0.5-0.1-0.6-0.1L1042.2,235.6z M1041.9,234.8c0-0.1,0-0.2,0.1-0.3L1041.9,234.8z M1040.6,237
        c-0.2,0.2-0.3,0.3-0.3,0.4c-0.2,0.2-0.3,0.3-0.4,0.4c-0.1,0.1-0.3,0.2-0.4,0.2l1.3-1.3L1040.6,237z M1021.2,238v-0.1l0.3-0.5
        c0-0.2,0.3-0.9,0.9-2.2c0.6-1.3,1.3-3,2.2-4.9c2-3.4,3.9-6.7,5.8-10c1.9-3.2,3.6-6.2,5.1-8.8c1.5-2.6,2.7-4.8,3.6-6.6
        c0.9-1.8,1.3-2.9,1.3-3.3v-0.1c-0.4,0.4-0.9,0.7-1.3,0.9c-0.4,0.2-0.6,0.5-0.6,1c-0.5,1-1.3,2.4-2.4,4c-1.1,1.7-1.8,3-2.2,4
        l-3.3,5.6c0.3-0.6,0.4-1,0.4-1.3c-0.1,0-0.4,0.4-0.8,1.3c-0.5,0.9-1.3,2.3-2.4,4.3c0-0.1,0.3-0.6,0.8-1.7c0.5-1,1.2-2.3,1.9-3.8
        c0.8-1.5,1.6-3.1,2.5-4.9c0.9-1.7,1.7-3.4,2.5-4.9c0.8-1.5,1.4-2.7,1.9-3.7c0.5-1,0.8-1.5,0.8-1.6l1.3-2.4c0-0.1,0.1-0.2,0.1-0.3
        l1.7,2v0.3l0.1-0.1l1.4,1.6c-1.5,2.5-3.2,5.3-5.2,8.5c-2,3.3-4.1,6.8-6.2,10.5c-0.3,0.3-1,1.4-2.1,3.2c-1.1,1.8-2.2,3.7-3.4,5.8
        C1024.3,232.4,1022.8,235,1021.2,238z M1030.3,236.6c-0.4,0.6-0.8,1.3-1.2,2l-1.3,2c0.5-1.4,1-2.6,1.3-3.3s0.8-1.4,1.2-2
        c0.4-0.6,0.7-0.8,0.8-0.6C1031,235.3,1030.7,235.9,1030.3,236.6z M1031.2,225.9c-1.2,2-2.5,4.3-4,7v-0.1l16.2-29.8l1.7,2
        c-0.1,0.3-0.2,0.7-0.4,1v-0.4c-0.3,0-1,0.7-2,2c-1,1.4-2.1,3.1-3.4,5.1c-1.3,2-2.6,4.2-4.1,6.6
        C1033.7,221.7,1032.4,223.9,1031.2,225.9z M1034.9,229.7c0.4-1.2,0.7-2.5,1-3.8l1.7-1.4c-0.3,1.2-0.6,2.4-0.9,3.6
        c-0.3,1.2-0.6,2.4-0.8,3.7l-1.8,1.8C1034.3,232.2,1034.5,230.9,1034.9,229.7z M1036.1,244.6c-0.3,0.5-0.6,0.7-0.6,0.8l1.2-3.1
        c0.3-0.2,0.8-0.5,1.3-1l1.4-1.4c-0.3,0.3-0.6,0.8-1,1.4c-0.4,0.6-0.8,1.2-1.2,1.7C1036.9,243.6,1036.5,244.2,1036.1,244.6z
         M1039.8,256.5c-0.2,0-0.4,0.1-0.5,0.1c0.3-0.5,0.5-1,0.7-1.6c0.1,0.1,0.2,0.1,0.3,0.2c0.8,0.4,1.8,0.7,3,0.9
        C1042.3,256.1,1041.1,256.2,1039.8,256.5z M1064,236.6c-4.2,0.6-7.5,1.2-9.9,1.8c-2.4,0.6-3.6,1.3-3.6,2c0,0.2-0.2,0.4-0.5,0.6
        c-0.3,0.3-0.7,0.6-1.2,0.9c-0.4,0.3-0.8,0.7-1.2,1c-0.3,0.3-0.5,0.6-0.5,0.9c0,0.2,0.1,0.3,0.3,0.3c-0.8,0.4-1.4,1-1.9,1.9
        c-0.5,0.8-0.9,1.7-1.2,2.6c-0.3,0.9-0.6,1.8-0.8,2.6c-0.2,0.9-0.5,1.5-0.8,2c-0.8,0.1-1.4,0.2-1.9,0.3c0,0,0-0.1,0-0.1
        c2.3-5,4.3-9.4,5.8-13.4c1.5-3.9,2.3-6.7,2.3-8.4c0-1,0.1-1.8,0.4-2.4c0.3-0.6,0.7-1.3,1.3-2.2l0.5-0.3l1.8-1.8l-1.2,0.6l-2.3,2.4
        c0.3-1.1,0.7-2,1.3-2.6c0.6-0.6,1-1.1,1-1.5c0-0.3-0.1-0.4-0.3-0.4c-0.3,0-0.7,0.3-1.2,1c-0.6,0.6-1.2,1.4-2,2.2
        c-0.8,0.8-1.6,1.5-2.4,2.2c-0.8,0.6-1.5,1-2.1,1c3.5-4.8,5.9-8.3,7.2-10.5c1.3-2.2,2-3.7,2-4.3c0-0.1,0-0.2-0.1-0.3l17.9,21.2
        C1068.5,236,1066.2,236.3,1064,236.6z M1159,255.6c0.7-0.7,1.4-1,2.2-1c1.2,0,2.2,0.4,3.1,1.3c0.9,0.9,1.3,1.4,1.3,1.7h-0.1
        c-0.7-0.2-1.4-0.5-2-1.1c-0.7-0.6-1.4-0.8-2-0.8H1159z"/>
    <path class="st0" d="M1265.7,344c-0.9,0-1.9,0-2.8,0.1c-0.9,0.1-1.4,0.2-1.4,0.4c0,0.2,0.5,0.3,1.4,0.3c0.9,0,1.9,0.1,2.8,0.1
        c0.9,0,1.6,0,1.9-0.1c0.3,0,0.4-0.1,0.4-0.3c0-0.2-0.1-0.3-0.4-0.4C1267.2,344,1266.6,344,1265.7,344z"/>
    <path class="st0" d="M1301.2,266.4c-0.7,0.3-1.4,0.5-2.1,0.6c-0.3,0.3-0.4,0.5-0.4,0.6c0,0.3,0.3,0.4,0.9,0.4c0.5,0,1.2-0.2,2-0.5
        c0.9-0.3,1.5-0.8,1.9-1.4c-0.1,0-0.1,0-0.2-0.1c0,0-0.1-0.1-0.2-0.1C1302.5,266,1301.9,266.2,1301.2,266.4z"/>
    <polygon class="st0" points="0.1,157.2 48.8,157.2 48.8,254.9 73.3,254.9 73.3,157.2 122.1,157.2 122.1,132.8 0,132.8  "/>
    <polygon class="st0" points="244.2,181.6 170.9,181.6 170.9,132.8 146.5,132.8 146.5,254.9 170.9,254.9 170.9,206 244.2,206
        244.2,254.9 268.6,254.9 268.6,132.8 244.2,132.9     "/>
    <rect x="293" y="132.8" class="st0" width="122.1" height="24.4"/>
    <rect x="293" y="230.5" class="st0" width="122.1" height="24.4"/>
    <rect x="293" y="181.6" class="st0" width="122.1" height="24.4"/>
</g>
</svg>
