<!-- Generator: Adobe Illustrator 22.1.0, SVG Export Plug-In  -->
<svg version="1.1"
	 xmlns="http://www.w3.org/2000/svg" xmlns:xlink="http://www.w3.org/1999/xlink" xmlns:a="http://ns.adobe.com/AdobeSVGViewerExtensions/3.0/"
	 x="0px" y="0px" width="1760px" height="2032.3px" viewBox="0 0 1760 2032.3" style="enable-background:new 0 0 1760 2032.3;"
	 xml:space="preserve">
<style type="text/css">
	.st0{fill:#FFFFFF;}
</style>
<defs>
</defs>
<path class="st0" d="M1523.4,642.7l-455.2,49.5c-0.8,0.1-1.5-0.4-1.9-1.1L881.7,272.2c-0.6-1.5-2.7-1.5-3.3,0L693.6,691.1
	c-0.3,0.7-1.1,1.2-1.9,1.1l-455.1-49.5c-1.6-0.2-2.6,1.6-1.7,2.9l270.4,369.4c0.5,0.6,0.5,1.5,0,2.2l-270.4,369.4
	c-0.9,1.3,0.1,3.1,1.7,2.9l455.1-49.5c0.8-0.1,1.5,0.4,1.9,1.1L878.3,1760c0.6,1.5,2.7,1.5,3.3,0l184.7-418.9
	c0.3-0.7,1.1-1.2,1.9-1.1l455.2,49.5c1.6,0.2,2.6-1.6,1.7-2.9l-270.4-369.4c-0.5-0.6-0.5-1.5,0-2.2l270.4-369.4
	C1526,644.3,1525,642.6,1523.4,642.7z M1330.1,758c19.1,33.1-570.3,360.4-604.7,379.4c-0.9,0.5-2,0.2-2.5-0.7l-38.9-67.5
	c-0.5-0.9-0.2-2,0.7-2.5C719.9,1047.5,1311.1,725,1330.1,758z M520.2,1109.5l316.5-507.9c1.2-2,4.2-0.3,3.2,1.8L648.2,996.2
	c-0.9,1.9,1.6,3.6,3,2l257.8-304c1.4-1.7,4,0.1,3,2L793.5,927.8c-0.9,1.8,1.3,3.5,2.8,2.2l167-145.8c1.6-1.4,3.9,0.5,2.8,2.3
	l-83,136.9c-0.2,0.3-0.4,0.5-0.7,0.7c-117.3,61.6-213.6,114.3-214.9,115l-29.2,16l0.4,0.6c-26.4,9-77.7,28-104.9,47.2
	c-3.8,2.7-7.3,5.6-10.6,8.8C521.6,1113.1,519.2,1111.3,520.2,1109.5L520.2,1109.5z M453.1,1255.2c-1.7-0.1-2.3-2.4-0.9-3.3
	c59.6-40.7,68.5-100.1,100.2-122.4c29.8-21,99.6-44,110.4-47.5c0.8-0.3,1.7,0.1,2.1,0.8l37.4,64.8c0.4,0.7,0.3,1.6-0.3,2.2
	c-6,6.1-40,39.2-102.7,75.4C540.4,1259.4,472.1,1256.8,453.1,1255.2z M571.3,1278.9c-2.1,0.1-2.7-2.8-0.8-3.5
	c9.4-3.6,24-10.2,45.2-21.9c57-31.6,91.3-63.2,104.7-76c0.1-0.1,0.2-0.2,0.4-0.3l18.8-10.4c1.2-0.7,100.8-55.8,218.3-123.6
	c0.3-0.2,0.6-0.2,0.9-0.2l153.3-3.4c2.1,0,2.6,2.9,0.6,3.6L903,1114.8c-1.9,0.7-1.5,3.5,0.5,3.6l259.8,13.1c2.2,0.1,2.4,3.2,0.2,3.6
	l-392.2,71.3c-2.1,0.4-1.9,3.5,0.2,3.6l441.8,30.8c2.3,0.2,2.3,3.5,0,3.7L571.3,1278.9z"/>
<path class="st0" d="M1760,508.1l-626,68.1L880,0L626,576.1L0,508.1l371.9,508.1L0,1524.2l626-68.1l254,576.1l254-576.1l626,68.1
	l-371.9-508.1L1760,508.1z M1653.6,1462.8l-550.3-59.8L880,1909.4l-223.3-506.5l-550.3,59.8l327-446.7l-327-446.7l550.3,59.8
	L880,122.8l223.3,506.5l550.3-59.8l-327,446.7L1653.6,1462.8z"/>
</svg>
